<svg width="14" height="15" viewBox="0 0 14 15" fill="none" xmlns="http://www.w3.org/2000/svg">
<path d="M0.846802 6.17651L1.72916 14.9999H11.4349L12.3173 6.17651H0.846802ZM4.59676 13.4558H3.27326V7.72059H4.59676V13.4558ZM7.24379 13.4558H5.92026V7.72059H7.24379V13.4558ZM9.89082 13.4558H8.56732V7.72059H9.89082V13.4558Z" fill="#918f8f"/>
<path d="M10.5508 2.64703H9.00673V2.42646C9.00673 1.08851 7.91824 0 6.5803 0C5.24235 0 4.15384 1.08851 4.15384 2.42646V2.64703H2.60974C1.29822 2.64703 0.210115 3.60107 0 4.85289H13.1605C12.9505 3.60107 11.8624 2.64703 10.5508 2.64703ZM7.68323 2.64703H5.47737V2.42646C5.47737 1.81829 5.97213 1.32353 6.5803 1.32353C7.18847 1.32353 7.68323 1.81829 7.68323 2.42646V2.64703Z" fill="#918f8f"/>
</svg>
